<svg width="34" height="34" viewBox="0 0 34 34" fill="none" xmlns="http://www.w3.org/2000/svg">
<g clip-path="url(#clip0_349_335)">
<path d="M13.2451 7.70312H4.47949C3.92938 7.70312 3.4834 8.14911 3.4834 8.69922C3.4834 9.13272 3.76084 9.50054 4.14746 9.63741V15.207H13.5771V9.63741C13.9638 9.50054 14.2412 9.13272 14.2412 8.69922C14.2412 8.14911 13.7952 7.70312 13.2451 7.70312Z" fill="white"/>
<path d="M14.9082 1.99219H15.5751V12.8329C15.5734 12.8336 15.5718 12.8343 15.5702 12.8349V20.7192C15.5782 20.7191 15.5859 20.7187 15.5939 20.7187C16.2039 20.7187 16.7284 20.9496 17.1498 21.1352C17.4389 21.2625 17.7121 21.3827 17.9029 21.3827C18.0937 21.3827 18.3668 21.2625 18.656 21.1352C19.0774 20.9496 19.6019 20.7187 20.2119 20.7187C20.8219 20.7187 21.3463 20.9496 21.7678 21.1352C22.0569 21.2625 22.33 21.3827 22.5209 21.3827C22.7117 21.3827 22.9848 21.2625 23.2739 21.1352C23.6953 20.9496 24.2198 20.7187 24.8298 20.7187C25.4399 20.7187 25.9643 20.9496 26.3857 21.1352C26.6749 21.2625 26.948 21.3827 27.1388 21.3827C27.3296 21.3827 27.6027 21.2625 27.8918 21.1352C28.3132 20.9496 28.8377 20.7187 29.4477 20.7187C29.7446 20.7187 30.0258 20.7607 30.2931 20.8246C29.9741 19.2662 29.3172 17.7981 28.348 16.4986C27.106 14.8334 25.4557 13.5767 23.5438 12.8329V1.99219H24.2107C24.7608 1.99219 25.2068 1.5462 25.2068 0.996094C25.2068 0.445984 24.7608 0 24.2107 0H14.9082C14.3581 0 13.9121 0.445984 13.9121 0.996094C13.9121 1.5462 14.3581 1.99219 14.9082 1.99219ZM21.7818 16.8671C22.3305 16.8671 22.7779 17.3146 22.7779 17.8632C22.7779 18.4119 22.3305 18.8593 21.7818 18.8593C21.2332 18.8593 20.7858 18.4118 20.7858 17.8632C20.7858 17.3146 21.2332 16.8671 21.7818 16.8671Z" fill="white"/>
<path d="M30.5156 22.9915C30.128 22.8419 29.7627 22.7109 29.4473 22.7109C29.2565 22.7109 28.9834 22.8312 28.6943 22.9585C28.2729 23.144 27.7484 23.375 27.1384 23.375C26.5284 23.375 26.004 23.144 25.5825 22.9585C25.2933 22.8312 25.0202 22.7109 24.8294 22.7109C24.6385 22.7109 24.3654 22.8312 24.0763 22.9585C23.6549 23.144 23.1304 23.375 22.5204 23.375C21.9104 23.375 21.3859 23.144 20.9645 22.9585C20.6754 22.8312 20.4022 22.7109 20.2115 22.7109C20.0207 22.7109 19.7476 22.8312 19.4584 22.9585C19.037 23.144 18.5125 23.375 17.9025 23.375C17.2925 23.375 16.768 23.144 16.3466 22.9585C16.0575 22.8312 15.7844 22.7109 15.5936 22.7109C15.5858 22.7109 15.5776 22.7121 15.5699 22.7122V29.2845C15.5699 30.5721 15.2048 31.776 14.5732 32.7985C16.0695 33.5664 17.7646 34.0001 19.559 34.0001C25.6007 34.0001 30.5161 29.0847 30.5161 23.043C30.5161 23.0258 30.5157 23.0087 30.5156 22.9915ZM18.8568 26.7618C18.3082 26.7618 17.8608 26.3143 17.8608 25.7657C17.8608 25.217 18.3082 24.7696 18.8568 24.7696C19.4055 24.7696 19.8529 25.217 19.8529 25.7657C19.8529 26.3143 19.4055 26.7618 18.8568 26.7618ZM22.5092 28.7539C21.9605 28.7539 21.5131 28.3065 21.5131 27.7578C21.5131 27.2092 21.9606 26.7617 22.5092 26.7617C23.0578 26.7617 23.5053 27.2092 23.5053 27.7578C23.5053 28.3065 23.0578 28.7539 22.5092 28.7539Z" fill="white"/>
<path d="M4.14746 18.9921H6.18945C6.73956 18.9921 7.18555 19.4381 7.18555 19.9882C7.18555 20.5383 6.73956 20.9843 6.18945 20.9843H4.14746V22.9765H6.18945C6.73956 22.9765 7.18555 23.4225 7.18555 23.9726C7.18555 24.5227 6.73956 24.9687 6.18945 24.9687H4.14746V26.9609H6.18945C6.73956 26.9609 7.18555 27.4069 7.18555 27.957C7.18555 28.5071 6.73956 28.9531 6.18945 28.9531H4.14746V29.2844C4.14746 31.8842 6.26257 33.9993 8.8623 33.9993C11.4621 33.9993 13.5771 31.8842 13.5771 29.2844V17.1992H4.14746V18.9921Z" fill="white"/>
</g>
<defs>
<clipPath id="clip0_349_335">
<rect width="34" height="34" fill="white"/>
</clipPath>
</defs>
</svg>
